<svg data-v-fde0c5aa="" xmlns="http://www.w3.org/2000/svg" viewBox="0 0 300 300" class="iconAbove"><!----><defs data-v-fde0c5aa=""><!----></defs><rect data-v-fde0c5aa="" fill="transparent" x="0" y="0" width="300px" height="300px" class="logo-background-square"></rect><defs data-v-fde0c5aa=""><linearGradient data-v-fde0c5aa="" gradientTransform="rotate(25)" id="21b1daf8-663b-4226-8f36-9a1b1a7802fe" x1="0%" y1="0%" x2="100%" y2="0%"><stop data-v-fde0c5aa="" offset="0%" stop-color="#555555" stop-opacity="1"></stop><stop data-v-fde0c5aa="" offset="100%" stop-color="#181B80" stop-opacity="1"></stop></linearGradient></defs><g data-v-fde0c5aa="" id="3bca489d-5de4-403e-9622-ece650d520d3" fill="url(#21b1daf8-663b-4226-8f36-9a1b1a7802fe)" transform="matrix(3.3788516521453857,0,0,3.3788516521453857,18.85171836133814,174.74597695314483)"><path d="M0.34 12.28C0.34 12.42 0.49 12.42 0.74 12.42L5.53 12.42C5.59 11.45 5.66 10.81 5.68 10.30L5.22 10.30C5.12 11.52 5.08 11.56 4.59 11.56L1.60 11.56L5.14 7.70C5.45 7.35 5.67 7.20 5.67 7.10C5.67 7.03 5.57 7.00 5.19 7.00L1.43 7.00C1.11 7.00 1.12 6.97 1.12 6.72L0.77 6.72L0.55 8.71L0.91 8.72C1.02 7.85 1.02 7.84 1.50 7.84L4.35 7.84L0.73 11.76C0.53 11.97 0.34 12.15 0.34 12.28ZM6.54 11.51C6.54 12.26 7.24 12.57 7.83 12.57C8.44 12.57 9.10 12.17 9.46 11.68C9.76 12.04 9.91 12.31 10.40 12.66C10.44 12.64 10.92 12.36 11.24 12.15C11.34 12.10 11.37 12.04 11.37 12.00C11.37 11.96 11.34 11.91 11.24 11.89C10.43 11.66 10.33 11.21 10.33 10.61L10.33 7.99C10.33 6.97 9.42 6.87 9.10 6.87C7.08 6.87 6.65 8.13 6.65 8.44C6.65 8.61 6.69 8.95 6.97 8.95C7.08 8.95 7.42 8.81 7.42 8.58C7.42 8.43 7.34 8.22 7.28 7.97C7.28 7.97 7.43 7.53 8.41 7.53C9.27 7.53 9.35 7.98 9.35 8.53L9.35 9.37C7.77 9.37 6.54 10.36 6.54 11.51ZM7.52 11.10C7.52 10.49 8.19 9.74 9.35 9.74L9.35 11.05C9.35 11.35 9.18 11.82 8.36 11.82C7.74 11.82 7.52 11.48 7.52 11.10ZM11.47 15.60L11.48 16.04L14.70 16.04L14.71 15.60L14.50 15.60C13.62 15.60 13.40 15.58 13.40 15.25L13.40 12.35C13.40 12.35 14.15 12.59 15.13 12.59C16.74 12.59 17.81 11.31 17.81 9.60C17.81 8.15 16.81 6.90 15.48 6.90C14.42 6.90 13.40 7.94 13.40 7.94L13.40 6.79C12.67 6.99 12.07 7.15 11.55 7.25L11.56 7.70C11.86 7.64 12.07 7.56 12.19 7.56C12.33 7.56 12.42 7.66 12.42 7.95L12.42 15.26C12.42 15.57 12.32 15.60 11.47 15.60ZM13.40 11.65L13.40 8.37C13.54 8.26 14.07 7.73 14.85 7.73C15.95 7.73 16.81 8.76 16.81 10.05C16.81 10.79 16.48 12.12 15.09 12.12C14.11 12.12 13.40 11.65 13.40 11.65ZM18.24 2.58L18.27 3.05C18.54 3.00 19.03 2.91 19.07 2.91C19.29 2.91 19.32 3.02 19.32 3.61L19.32 11.59C19.32 11.94 19.15 11.97 18.69 11.97L18.38 11.97L18.38 12.42L21.43 12.42L21.43 11.97L21.20 11.97C20.45 11.97 20.30 11.94 20.30 11.59L20.30 2.25C19.61 2.38 18.96 2.48 18.24 2.58ZM22.05 11.51C22.05 12.26 22.75 12.57 23.34 12.57C23.95 12.57 24.61 12.17 24.98 11.68C25.27 12.04 25.42 12.31 25.91 12.66C25.96 12.64 26.43 12.36 26.75 12.15C26.85 12.10 26.88 12.04 26.88 12.00C26.88 11.96 26.85 11.91 26.75 11.89C25.94 11.66 25.84 11.21 25.84 10.61L25.84 7.99C25.84 6.97 24.93 6.87 24.61 6.87C22.60 6.87 22.16 8.13 22.16 8.44C22.16 8.61 22.20 8.95 22.48 8.95C22.60 8.95 22.93 8.81 22.93 8.58C22.93 8.43 22.85 8.22 22.79 7.97C22.79 7.97 22.95 7.53 23.93 7.53C24.78 7.53 24.86 7.98 24.86 8.53L24.86 9.37C23.28 9.37 22.05 10.36 22.05 11.51ZM23.03 11.10C23.03 10.49 23.70 9.74 24.86 9.74L24.86 11.05C24.86 11.35 24.70 11.82 23.87 11.82C23.25 11.82 23.03 11.48 23.03 11.10ZM27.23 11.97L27.24 12.42L29.97 12.42L30.00 11.97L29.82 11.97C28.98 11.97 28.98 11.93 28.98 11.49L28.98 8.12C28.98 8.12 29.82 7.67 30.49 7.67C31.12 7.67 31.40 7.94 31.40 8.74L31.40 11.55C31.40 11.94 31.32 11.97 30.93 11.97L30.60 11.97L30.62 12.42L33.22 12.42L33.24 11.97C32.58 11.97 32.38 11.97 32.38 11.55L32.38 9.14C32.38 8.04 32.37 6.89 31.05 6.89C29.93 6.89 29.16 7.69 28.94 7.78C28.94 7.27 28.95 7.13 28.98 6.79L27.26 7.14L27.26 7.57C27.64 7.49 27.68 7.46 27.79 7.46C27.99 7.46 28.00 7.59 28.00 8.16L28.00 11.49C28.00 11.94 28.00 11.97 27.37 11.97ZM33.50 7.42C33.70 7.41 33.85 7.38 33.96 7.38C34.16 7.38 34.23 7.43 34.23 7.73L34.23 10.49C34.23 11.55 34.48 12.63 35.88 12.63C36.83 12.63 37.67 11.72 37.67 11.72C37.73 12.07 37.76 12.39 37.77 12.71C38.39 12.54 38.88 12.39 39.49 12.26L39.49 11.82C39.20 11.90 38.99 11.97 38.86 11.97C38.65 11.97 38.61 11.90 38.61 10.86L38.61 6.79C37.84 6.92 37.31 6.99 36.69 7.03L36.74 7.46C36.75 7.45 37.16 7.39 37.35 7.39C37.53 7.39 37.63 7.43 37.63 7.81L37.63 11.23C37.63 11.23 37.31 11.76 36.37 11.76C35.32 11.76 35.21 11.12 35.21 10.29L35.21 6.79C34.51 6.92 33.95 6.96 33.50 7.00ZM40.80 4.10C40.80 4.27 41.13 4.73 41.38 4.73C41.54 4.73 41.99 4.31 41.99 4.12C41.99 3.89 41.54 3.51 41.38 3.51C41.20 3.51 40.80 3.88 40.80 4.10ZM38.81 15.53C38.81 15.74 39.42 16.07 39.90 16.07C40.49 16.07 41.16 15.53 41.16 15.53C41.64 15.18 41.94 14.64 41.94 13.09L41.94 6.76C41.03 6.97 40.59 7.10 39.97 7.20L40.04 7.62C40.36 7.55 40.56 7.49 40.66 7.49C40.95 7.49 40.96 7.70 40.96 8.06L40.96 13.54C40.96 14.73 40.80 15.44 40.32 15.44C40.10 15.44 39.77 14.84 39.56 14.84C39.26 14.84 38.81 15.23 38.81 15.53ZM43.60 3.64L43.99 3.64C44.49 3.64 44.72 3.67 44.72 4.14L44.72 11.47C44.72 11.83 44.59 11.87 44.13 11.87L43.71 11.87L43.71 12.42L45.70 12.42C47.25 12.42 48.85 12.38 49.71 11.59C50.16 11.19 50.34 10.60 50.34 10.01C50.34 8.95 49.78 7.70 48.22 7.35C49.08 7.10 50.01 6.37 50.01 5.38C50.01 4.31 49.28 3.08 46.72 3.08L43.62 3.08ZM45.82 7.60C47.01 7.60 49.01 7.95 49.01 9.91C49.01 10.67 48.73 11.80 46.76 11.80C46.05 11.80 45.85 11.75 45.85 11.35ZM45.85 7.20L45.85 4.02C45.85 3.81 45.95 3.70 46.27 3.70C48.10 3.70 48.71 4.80 48.71 5.54C48.71 6.24 48.17 7.20 47.22 7.20ZM52.46 4.10C52.46 4.27 52.79 4.73 53.05 4.73C53.20 4.73 53.65 4.31 53.65 4.12C53.65 3.89 53.20 3.51 53.05 3.51C52.86 3.51 52.46 3.88 52.46 4.10ZM51.41 7.15L51.42 7.57C51.86 7.49 52.12 7.46 52.19 7.46C52.35 7.46 52.40 7.55 52.40 7.91L52.40 11.65C52.40 11.94 52.29 11.97 51.59 11.97L51.46 11.97L51.46 12.42L54.50 12.42L54.50 11.97L54.25 11.97C53.42 11.97 53.38 11.93 53.38 11.59L53.38 6.73C52.61 6.94 52.02 7.06 51.41 7.15ZM55.08 12.28C55.08 12.42 55.23 12.42 55.48 12.42L60.27 12.42C60.33 11.45 60.40 10.81 60.42 10.30L59.96 10.30C59.86 11.52 59.82 11.56 59.33 11.56L56.34 11.56L59.88 7.70C60.19 7.35 60.41 7.20 60.41 7.10C60.41 7.03 60.31 7.00 59.93 7.00L56.17 7.00C55.85 7.00 55.86 6.97 55.86 6.72L55.51 6.72L55.29 8.71L55.65 8.72C55.76 7.85 55.76 7.84 56.24 7.84L59.09 7.84L55.47 11.76C55.27 11.97 55.08 12.15 55.08 12.28ZM61.14 11.97L61.15 12.42L63.88 12.42L63.91 11.97L63.73 11.97C62.89 11.97 62.89 11.93 62.89 11.49L62.89 8.12C62.89 8.12 63.73 7.67 64.40 7.67C65.03 7.67 65.31 7.94 65.31 8.74L65.31 11.55C65.31 11.94 65.23 11.97 64.83 11.97L64.51 11.97L64.53 12.42L67.13 12.42L67.14 11.97C66.49 11.97 66.29 11.97 66.29 11.55L66.29 9.14C66.29 8.04 66.28 6.89 64.96 6.89C63.84 6.89 63.07 7.69 62.85 7.78C62.85 7.27 62.86 7.13 62.89 6.79L61.17 7.14L61.17 7.57C61.54 7.49 61.59 7.46 61.70 7.46C61.89 7.46 61.91 7.59 61.91 8.16L61.91 11.49C61.91 11.94 61.91 11.97 61.28 11.97ZM67.58 9.86C67.58 10.93 68.17 12.60 70.14 12.60C71.65 12.60 72.69 11.42 72.69 11.16C72.69 11.03 72.63 10.99 72.56 10.99C72.32 10.99 71.81 11.65 70.70 11.65C69.52 11.65 68.63 10.86 68.63 9.45C68.63 9.38 68.64 9.30 68.64 9.25L72.16 8.83C72.21 8.83 72.38 8.78 72.38 8.62C72.38 8.13 71.58 6.83 70.06 6.83C68.67 6.83 67.58 8.04 67.58 9.86ZM68.67 8.76C68.82 7.84 69.36 7.31 69.92 7.31C70.69 7.31 71.08 8.46 71.08 8.46ZM73.33 10.44L73.58 12.77L73.99 12.74C73.99 12.68 73.98 12.64 73.98 12.60C73.98 12.50 74.00 12.42 74.10 12.42C74.20 12.42 74.83 12.60 75.47 12.60C76.69 12.60 77.29 11.84 77.29 11.02C77.29 10.28 76.72 9.86 76.06 9.41L75.43 8.99C75.01 8.69 74.66 8.48 74.66 8.05C74.66 7.67 75.07 7.38 75.46 7.38C76.33 7.38 76.78 7.84 76.78 7.84L76.79 8.83L77.24 8.83L77.24 6.72L76.79 6.71C76.79 7.00 76.78 7.13 76.66 7.13C76.52 7.13 76.15 6.87 75.45 6.87C74.48 6.87 73.74 7.52 73.74 8.27C73.74 8.99 74.21 9.45 74.79 9.83L75.29 10.16C75.81 10.50 76.26 10.81 76.26 11.33C76.26 11.69 76.01 12.12 75.45 12.12C74.65 12.12 73.91 11.58 73.91 11.58L73.77 10.42Z"></path></g><defs data-v-fde0c5aa=""><linearGradient data-v-fde0c5aa="" gradientTransform="rotate(25)" id="806a51db-7355-4303-9a81-11e9e10436b4" x1="0%" y1="0%" x2="100%" y2="0%"><stop data-v-fde0c5aa="" offset="0%" stop-color="#555555" stop-opacity="1"></stop><stop data-v-fde0c5aa="" offset="100%" stop-color="#181B80" stop-opacity="1"></stop></linearGradient></defs><g data-v-fde0c5aa="" id="8d9e8750-e31e-46eb-9f36-d6fdb81077f8" stroke="none" fill="url(#806a51db-7355-4303-9a81-11e9e10436b4)" transform="matrix(0.9830498099327087,0,0,0.9830498099327087,100.84750882133788,68.5010355210667)"><switch><g><path d="M41.3 76.3v3.5C47.8 80.9 52 84 52 86.7c0 3.5-6.6 7.3-16 7.3s-16-3.8-16-7.3c0-2.7 4.2-5.8 10.8-6.9v-3.5c-8.3 1.2-14.3 5.3-14.3 10.4 0 6 8.5 10.8 19.5 10.8 10.9 0 19.4-4.7 19.4-10.8.1-5-5.8-9.1-14.1-10.4z"></path><path d="M82.8 5.9c-.4-.3-1-.5-1.5-.3-8.2 2.1-14.3.6-20.8-1-7.2-1.8-14.7-3.7-24.7.1-.1 0-.1 0-.2.1-.7.2-1.2.9-1.2 1.6v79.9c0 1 .8 1.7 1.7 1.7 1 0 1.7-.8 1.7-1.7V41c8.6-3 15-1.4 21.8.3 6.6 1.7 13.5 3.4 22.6 1 .8-.2 1.3-.9 1.3-1.7V7.3c-.1-.5-.3-1-.7-1.4zM80 13.3L56.2 37c-2.4-.5-4.8-.9-7.4-1l25.8-25.9c1.7-.1 3.4-.3 5.2-.6v3.8zm-42.2 7.1l14-14c2.4.3 4.6.9 7 1.5l-21 21v-8.5zM47.2 6l-9.5 9.5V7.6C41.2 6.4 44.3 6 47.2 6zm-9.4 27.7l25-25c2.3.5 4.7 1 7.2 1.2L43.9 36.1c-1.9.2-3.9.6-6.1 1.3v-3.7zm22.4 4.2L80 18.2v8.4L67.1 39.5c-2.3-.4-4.5-.9-6.7-1.5-.1 0-.1-.1-.2-.1zM71.5 40l8.4-8.4v7.8c-3 .6-5.8.7-8.4.6z"></path></g></switch></g><!----></svg>